<svg width="412" height="32" viewBox="0 0 412 32" fill="none" xmlns="http://www.w3.org/2000/svg">
<rect width="39" height="32" rx="8" fill="#1AA428"/>
<path d="M20.8423 11.3182V21.5H19.3011V12.8594H19.2415L16.8054 14.4503V12.9787L19.3459 11.3182H20.8423Z" fill="white"/>
<rect x="55.5" y="0.5" width="40" height="31" rx="7.5" stroke="#232321"/>
<path d="M71.9794 21.5V20.3864L75.4247 16.8168C75.7926 16.429 76.0959 16.0893 76.3345 15.7976C76.5765 15.5026 76.7571 15.2225 76.8764 14.9574C76.9957 14.6922 77.0554 14.4105 77.0554 14.1122C77.0554 13.7741 76.9759 13.4825 76.8168 13.2372C76.6577 12.9886 76.4406 12.7981 76.1655 12.6655C75.8904 12.5296 75.5805 12.4616 75.2358 12.4616C74.8712 12.4616 74.553 12.5362 74.2812 12.6854C74.0095 12.8345 73.8007 13.045 73.6548 13.3168C73.509 13.5885 73.4361 13.9067 73.4361 14.2713H71.9695C71.9695 13.6515 72.112 13.1096 72.397 12.6456C72.6821 12.1816 73.0732 11.822 73.5703 11.5668C74.0675 11.3082 74.6326 11.179 75.2656 11.179C75.9053 11.179 76.4688 11.3066 76.956 11.5618C77.4465 11.8137 77.8293 12.1584 78.1044 12.5959C78.3795 13.0301 78.517 13.5206 78.517 14.0675C78.517 14.4453 78.4458 14.8149 78.3033 15.1761C78.1641 15.5374 77.9205 15.9401 77.5724 16.3842C77.2244 16.825 76.7405 17.3603 76.1207 17.9901L74.0973 20.108V20.1825H78.6811V21.5H71.9794Z" fill="#232321"/>
<rect x="112.5" y="0.5" width="41" height="31" rx="7.5" stroke="#232321"/>
<path d="M132.524 21.6392C131.841 21.6392 131.232 21.5215 130.695 21.2862C130.161 21.0509 129.738 20.7244 129.427 20.3068C129.119 19.8859 128.953 19.3987 128.93 18.8452H130.491C130.511 19.1468 130.612 19.4086 130.794 19.6307C130.98 19.8494 131.222 20.0185 131.52 20.1378C131.818 20.2571 132.15 20.3168 132.514 20.3168C132.915 20.3168 133.27 20.2472 133.578 20.108C133.89 19.9687 134.133 19.7749 134.309 19.5263C134.485 19.2744 134.572 18.9844 134.572 18.6562C134.572 18.3149 134.485 18.0149 134.309 17.7564C134.137 17.4946 133.883 17.2891 133.548 17.1399C133.217 16.9908 132.816 16.9162 132.345 16.9162H131.485V15.6634H132.345C132.723 15.6634 133.054 15.5954 133.339 15.4595C133.628 15.3236 133.853 15.1347 134.016 14.8928C134.178 14.6475 134.259 14.3608 134.259 14.0327C134.259 13.7178 134.188 13.4444 134.045 13.2124C133.906 12.977 133.707 12.7931 133.449 12.6605C133.194 12.5279 132.892 12.4616 132.544 12.4616C132.213 12.4616 131.903 12.523 131.614 12.6456C131.329 12.7649 131.097 12.9373 130.918 13.1626C130.739 13.3847 130.643 13.6515 130.63 13.9631H129.143C129.16 13.4129 129.322 12.929 129.631 12.5114C129.942 12.0937 130.353 11.7673 130.864 11.532C131.374 11.2966 131.941 11.179 132.564 11.179C133.217 11.179 133.78 11.3066 134.254 11.5618C134.732 11.8137 135.099 12.1501 135.358 12.571C135.62 12.992 135.749 13.4527 135.746 13.9531C135.749 14.5232 135.59 15.0071 135.268 15.4048C134.95 15.8026 134.526 16.0694 133.996 16.2053V16.2848C134.672 16.3875 135.196 16.656 135.567 17.0902C135.941 17.5244 136.127 18.063 136.124 18.706C136.127 19.2661 135.971 19.7682 135.656 20.2124C135.345 20.6565 134.919 21.0062 134.379 21.2614C133.838 21.5133 133.22 21.6392 132.524 21.6392Z" fill="#232321"/>
<rect x="170.5" y="0.5" width="41" height="31" rx="7.5" stroke="#232321"/>
<path d="M186.766 19.5114V18.2685L191.165 11.3182H192.145V13.1477H191.523L188.376 18.1293V18.2088H194.407V19.5114H186.766ZM191.593 21.5V19.1335L191.603 18.5668V11.3182H193.06V21.5H191.593Z" fill="#232321"/>
<path d="M229.979 21.5945C229.707 21.5945 229.473 21.4983 229.278 21.3061C229.082 21.1106 228.984 20.8752 228.984 20.6001C228.984 20.3284 229.082 20.0964 229.278 19.9041C229.473 19.7086 229.707 19.6108 229.979 19.6108C230.25 19.6108 230.484 19.7086 230.68 19.9041C230.875 20.0964 230.973 20.3284 230.973 20.6001C230.973 20.7824 230.927 20.9498 230.834 21.1023C230.744 21.2514 230.625 21.3707 230.476 21.4602C230.327 21.5497 230.161 21.5945 229.979 21.5945ZM234.194 21.5945C233.922 21.5945 233.688 21.4983 233.493 21.3061C233.297 21.1106 233.199 20.8752 233.199 20.6001C233.199 20.3284 233.297 20.0964 233.493 19.9041C233.688 19.7086 233.922 19.6108 234.194 19.6108C234.465 19.6108 234.699 19.7086 234.895 19.9041C235.09 20.0964 235.188 20.3284 235.188 20.6001C235.188 20.7824 235.141 20.9498 235.049 21.1023C234.959 21.2514 234.84 21.3707 234.691 21.4602C234.542 21.5497 234.376 21.5945 234.194 21.5945ZM238.408 21.5945C238.137 21.5945 237.903 21.4983 237.707 21.3061C237.512 21.1106 237.414 20.8752 237.414 20.6001C237.414 20.3284 237.512 20.0964 237.707 19.9041C237.903 19.7086 238.137 19.6108 238.408 19.6108C238.68 19.6108 238.914 19.7086 239.109 19.9041C239.305 20.0964 239.403 20.3284 239.403 20.6001C239.403 20.7824 239.356 20.9498 239.263 21.1023C239.174 21.2514 239.055 21.3707 238.906 21.4602C238.756 21.5497 238.591 21.5945 238.408 21.5945Z" fill="#232321"/>
<rect x="257.5" y="0.5" width="47" height="31" rx="7.5" stroke="#232321"/>
<path d="M277.842 11.3182V21.5H276.301V12.8594H276.241L273.805 14.4503V12.9787L276.346 11.3182H277.842ZM284.391 21.669C283.606 21.6657 282.935 21.4586 282.378 21.0476C281.821 20.6366 281.395 20.0384 281.1 19.2528C280.805 18.4673 280.658 17.5211 280.658 16.4141C280.658 15.3104 280.805 14.3674 281.1 13.5852C281.398 12.803 281.826 12.2064 282.383 11.7955C282.943 11.3845 283.612 11.179 284.391 11.179C285.17 11.179 285.838 11.3861 286.395 11.8004C286.952 12.2114 287.378 12.808 287.673 13.5902C287.971 14.3691 288.12 15.3104 288.12 16.4141C288.12 17.5244 287.973 18.4723 287.678 19.2578C287.383 20.04 286.957 20.6383 286.4 21.0526C285.843 21.4635 285.174 21.669 284.391 21.669ZM284.391 20.3416C285.081 20.3416 285.619 20.0052 286.007 19.3324C286.398 18.6596 286.594 17.6868 286.594 16.4141C286.594 15.5689 286.504 14.8546 286.325 14.2713C286.15 13.6847 285.896 13.2405 285.565 12.9389C285.237 12.634 284.845 12.4815 284.391 12.4815C283.705 12.4815 283.167 12.8196 282.776 13.4957C282.384 14.1719 282.187 15.1446 282.184 16.4141C282.184 17.2625 282.272 17.9801 282.447 18.5668C282.626 19.1501 282.88 19.5926 283.208 19.8942C283.536 20.1925 283.931 20.3416 284.391 20.3416Z" fill="#232321"/>
<rect x="321.5" y="0.5" width="90" height="31" rx="7.5" stroke="#232321"/>
<path d="M346.337 11.3182V21.5H344.925L339.749 14.0327H339.655V21.5H338.119V11.3182H339.54L344.721 18.7955H344.815V11.3182H346.337ZM348.828 21.5V11.3182H355.211V12.6406H350.364V15.7429H354.878V17.0604H350.364V20.1776H355.271V21.5H348.828ZM358.582 11.3182L361.018 15.3004H361.098L363.534 11.3182H365.314L362.142 16.4091L365.333 21.5H363.544L361.098 17.5724H361.018L358.572 21.5H356.782L360.029 16.4091L356.802 11.3182H358.582ZM366.585 12.6406V11.3182H374.465V12.6406H371.288V21.5H369.757V12.6406H366.585Z" fill="#232321"/>
<path d="M386 11.5L390.5 16L386 20.5" stroke="#232321" stroke-width="1.5" stroke-linecap="round" stroke-linejoin="round"/>
</svg>
